<svg width="16" height="16" viewBox="0 0 16 16" fill="none" xmlns="http://www.w3.org/2000/svg">
<path fill-rule="evenodd" clip-rule="evenodd" d="M14.05 4.5L15.15 4.85L14.95 4.1L14.25 0.8L13.1 1.85C11.65 0.65 9.85 0 8 0C3.6 0 0 3.6 0 8C0 12.4 3.6 16 8 16C8.3 16 8.5 15.8 8.5 15.5C8.5 15.2 8.3 15 8 15C4.15 15 1 11.85 1 8C1 4.15 4.15 1 8 1C9.6 1 11.1 1.5 12.35 2.5L11.15 3.55L14.05 4.5ZM7 9H12.5C12.8 9 13 8.8 13 8.5C13 8.2 12.8 8 12.5 8H8V3.5C8 3.2 7.8 3 7.5 3C7.2 3 7 3.2 7 3.5V9ZM16 7.3V7.4V8V8.45C16 8.7 15.75 8.9 15.5 8.9H15.45C15.2 8.85 15 8.65 15 8.35V7.45C14.95 7.2 15.15 6.9 15.45 6.9C15.75 6.85 16 7.05 16 7.3ZM14.3 11.05C14.4 10.8 14.7 10.7 14.95 10.8C15.2 10.95 15.35 11.25 15.15 11.55C15 11.85 14.85 12.15 14.65 12.45C14.55 12.55 14.4 12.65 14.25 12.65C14.2 12.65 14.1 12.6 14 12.55C13.75 12.4 13.7 12.1 13.85 11.85L13.85 11.85C14 11.6 14.15 11.35 14.3 11.05ZM11.95 13.75C12.2 13.6 12.5 13.65 12.65 13.9C12.8 14.15 12.75 14.45 12.55 14.55L12.55 14.55C12.25 14.75 11.95 14.95 11.65 15.1C11.55 15.15 11.5 15.15 11.4 15.15C11.2 15.15 11.05 15.05 10.95 14.85C10.8 14.6 10.9 14.3 11.15 14.2C11.45 14.05 11.7 13.9 11.95 13.75L11.95 13.75Z" fill="#E85E24"/>
</svg>
