<svg width="17" height="16" viewBox="0 0 17 16" fill="none" xmlns="http://www.w3.org/2000/svg">
<path fill-rule="evenodd" clip-rule="evenodd" d="M8 16C6.92085 16 5.87202 15.7877 4.88562 15.3703C3.93311 14.9672 3.07692 14.3911 2.34381 13.6562C1.60892 12.9231 1.03278 12.0669 0.629654 11.1144C0.212263 10.128 0 9.07915 0 8C0 6.92085 0.212263 5.87202 0.629654 4.88562C1.03278 3.93311 1.60892 3.07692 2.34381 2.34203C3.07871 1.60713 3.93311 1.03099 4.8874 0.627871C5.87202 0.212263 6.92085 0 8 0C9.07915 0 10.128 0.212263 11.1144 0.629654C12.0669 1.03278 12.9231 1.60892 13.658 2.34381C14.3929 3.07871 14.969 3.93311 15.3721 4.8874C15.7895 5.8738 16.0018 6.92263 16.0018 8.00178C16.0018 9.08094 15.7895 10.1298 15.3721 11.1162C14.9672 12.0669 14.3911 12.9231 13.6562 13.6562C12.9213 14.3911 12.0669 14.9672 11.1126 15.3703C10.128 15.7877 9.07915 16 8 16ZM8 1.15942C4.22743 1.15942 1.15942 4.22743 1.15942 8C1.15942 11.7726 4.22743 14.8406 8 14.8406C11.7726 14.8406 14.8406 11.7726 14.8406 8C14.8406 4.22743 11.7726 1.15942 8 1.15942ZM11.2285 5.17458C11.4497 4.9534 11.8136 4.9534 12.0366 5.17458C12.2577 5.39755 12.2577 5.75964 12.0366 5.98261L7.19376 10.8254C7.08138 10.936 6.93512 10.9913 6.78885 10.9913C6.64259 10.9913 6.49632 10.936 6.38573 10.8254L3.96343 8.40312C3.74225 8.18194 3.74225 7.81806 3.96343 7.59509C4.18462 7.37391 4.54849 7.37391 4.77146 7.59509L6.79064 9.61427L11.2285 5.17458Z" fill="#609934"/>
</svg>
