<svg width="16" height="16" viewBox="0 0 16 16" fill="none" xmlns="http://www.w3.org/2000/svg">
<path d="M8 16C3.582 16 0 12.418 0 8C0 3.582 3.582 0 8 0C12.418 0 16 3.582 16 8C16 12.418 12.418 16 8 16ZM8 14.79C11.75 14.79 14.79 11.75 14.79 8C14.79 4.25 11.75 1.21 8 1.21C4.25 1.21 1.21 4.25 1.21 8C1.21 11.75 4.25 14.79 8 14.79ZM7.99467 3.29333H8.00533C8.18214 3.29333 8.35171 3.36357 8.47674 3.4886C8.60176 3.61362 8.672 3.78319 8.672 3.96V9.34933C8.672 9.52614 8.60176 9.69571 8.47674 9.82074C8.35171 9.94576 8.18214 10.016 8.00533 10.016H7.99467C7.81786 10.016 7.64829 9.94576 7.52326 9.82074C7.39824 9.69571 7.328 9.52614 7.328 9.34933V3.96067C7.328 3.78386 7.39824 3.61429 7.52326 3.48926C7.64829 3.36424 7.81786 3.294 7.99467 3.294V3.29333ZM8 12.7067C7.82169 12.7067 7.65068 12.6358 7.52459 12.5097C7.3985 12.3837 7.32767 12.2126 7.32767 12.0343C7.32767 11.856 7.3985 11.685 7.52459 11.5589C7.65068 11.4328 7.82169 11.362 8 11.362C8.17831 11.362 8.34932 11.4328 8.47541 11.5589C8.6015 11.685 8.67233 11.856 8.67233 12.0343C8.67233 12.2126 8.6015 12.3837 8.47541 12.5097C8.34932 12.6358 8.17831 12.7067 8 12.7067Z" fill="#DF2E2D"/>
</svg>
