<svg width="16" height="16" viewBox="0 0 16 16" fill="none" xmlns="http://www.w3.org/2000/svg">
<path fill-rule="evenodd" clip-rule="evenodd" d="M0 8C0 12.4114 3.58858 16 8 16C12.4114 16 16 12.4114 16 8C16 3.58858 12.4114 0 8 0C3.58858 0 0 3.58858 0 8ZM1.14799 8C1.14799 4.22171 4.22171 1.14799 8 1.14799C11.7777 1.14799 14.852 4.22171 14.852 8C14.852 11.7777 11.7777 14.852 8 14.852C4.22171 14.852 1.14799 11.7777 1.14799 8ZM11.2756 5.58055L8.80476 8.02456L11.2779 10.5057C11.5007 10.7297 11.5002 11.0908 11.2767 11.3137C11.1653 11.4246 11.0196 11.4806 10.8733 11.4806C10.7264 11.4806 10.5802 11.4246 10.4687 11.3126L7.99215 8.82798L5.53558 11.2577C5.42414 11.3674 5.279 11.4228 5.13386 11.4228C4.98644 11.4228 4.83958 11.3663 4.72758 11.2531C4.50586 11.0285 4.50758 10.6674 4.73216 10.4451L7.18532 8.01826L4.75219 5.57769C4.52933 5.35425 4.52988 4.99255 4.75332 4.76969C4.97677 4.54625 5.33788 4.54739 5.56133 4.77083L7.9979 7.21483L10.4722 4.76797C10.6962 4.54625 11.0585 4.54797 11.2802 4.77255C11.5019 4.99713 11.5002 5.35883 11.2756 5.58055Z" fill="#333333" fill-opacity="0.8"/>
</svg>
