<svg width="16" height="16" viewBox="0 0 16 16" fill="none" xmlns="http://www.w3.org/2000/svg">
<path fill-rule="evenodd" clip-rule="evenodd" d="M2.34073 2.34074C5.46117 -0.780247 10.5388 -0.780247 13.6592 2.34074C16.7802 5.46115 16.7802 10.5388 13.6592 13.6593C10.5389 16.7802 5.46117 16.7802 2.34073 13.6593C-0.780242 10.5388 -0.780242 5.46115 2.34073 2.34074ZM3.15303 12.847C5.82505 15.5196 10.1744 15.5202 12.847 12.847C15.5196 10.1749 15.5196 5.82506 12.847 3.15272C10.1744 0.47981 5.82507 0.480374 3.15303 3.15272C0.479835 5.82563 0.479835 10.1743 3.15303 12.847ZM8.06609 8.18544H12.0904C12.3867 8.18718 12.627 8.42747 12.627 8.72202C12.627 9.01831 12.3862 9.25863 12.0905 9.25863L7.91623 9.25801C7.62111 9.25801 7.39247 9.17053 7.22974 8.99847C6.98338 8.73584 6.99242 8.37052 6.99345 8.32881C6.99349 8.32718 6.99352 8.32604 6.99352 8.32542V3.73332C6.99352 3.43792 7.23384 3.19702 7.52952 3.19702C7.82519 3.19702 8.06665 3.43792 8.06665 3.73332L8.06609 8.18544Z" fill="#28A0F0"/>
</svg>
