<svg width="20" height="20" viewBox="0 0 20 20" fill="none" xmlns="http://www.w3.org/2000/svg">
<path d="M12.4993 18.9587H7.49935C2.97435 18.9587 1.04102 17.0253 1.04102 12.5003V7.50033C1.04102 2.97533 2.97435 1.04199 7.49935 1.04199H12.4993C17.0243 1.04199 18.9577 2.97533 18.9577 7.50033V12.5003C18.9577 17.0253 17.0243 18.9587 12.4993 18.9587ZM7.49935 2.29199C3.65768 2.29199 2.29102 3.65866 2.29102 7.50033V12.5003C2.29102 16.342 3.65768 17.7087 7.49935 17.7087H12.4993C16.341 17.7087 17.7077 16.342 17.7077 12.5003V7.50033C17.7077 3.65866 16.341 2.29199 12.4993 2.29199H7.49935Z" fill="#ffffff" fill-opacity="0.8"/>
<path d="M10.0003 15.7919C9.80026 15.7919 9.60027 15.7419 9.4336 15.6502C8.46694 15.1252 6.7586 14.5586 5.6836 14.4169L5.52527 14.3919C4.7086 14.2919 4.05859 13.5586 4.05859 12.7169V6.30023C4.05859 5.82523 4.25861 5.3669 4.60028 5.05023C4.95028 4.73357 5.40026 4.57524 5.8836 4.61691C7.10026 4.71691 8.86694 5.30025 9.90861 5.95025L9.99192 6.00025L10.0253 5.97525C11.0753 5.31691 12.8419 4.72524 14.0669 4.61691C14.0836 4.61691 14.1336 4.61691 14.1502 4.61691C14.5836 4.57524 15.0502 4.7419 15.3919 5.05023C15.7419 5.3669 15.9336 5.80856 15.9336 6.29189V12.7002C15.9336 13.5336 15.2836 14.2669 14.4586 14.3752L14.2836 14.4002C13.2169 14.5419 11.5002 15.1086 10.5502 15.6336C10.3919 15.7502 10.2003 15.7919 10.0003 15.7919ZM5.74194 5.87523C5.62528 5.87523 5.52525 5.9169 5.45025 5.98356C5.35858 6.0669 5.31694 6.18358 5.31694 6.30858V12.7252C5.31694 12.9252 5.50028 13.1336 5.69195 13.1586L5.85028 13.1836C7.06695 13.3502 8.93361 13.9586 10.0169 14.5502C11.0253 13.9669 12.9003 13.3419 14.1253 13.1836L14.3086 13.1586C14.5002 13.1336 14.6836 12.9252 14.6836 12.7252V6.31689C14.6836 6.18356 14.6336 6.07524 14.5503 5.99191C14.4586 5.90857 14.3419 5.87523 14.2086 5.88357C14.1919 5.88357 14.1419 5.88357 14.1253 5.88357C13.1586 5.9669 11.567 6.50023 10.7003 7.05023L10.6169 7.10023C10.2503 7.32523 9.73361 7.32524 9.38361 7.10857L9.25859 7.03357C8.38359 6.48357 6.79193 5.95856 5.7836 5.87523C5.76693 5.87523 5.75861 5.87523 5.74194 5.87523Z" fill="#ffffff" fill-opacity="0.8"/>
<path d="M5.6602 14.5651L5.66021 14.5651L5.50437 14.5405C4.61283 14.4299 3.90859 13.6325 3.90859 12.7169V6.30023C3.90859 5.78393 4.12569 5.28558 4.49832 4.94022L4.49964 4.939L4.49964 4.939C4.87978 4.59507 5.37054 4.42221 5.89618 4.46744C7.13615 4.56943 8.92484 5.15994 9.9869 5.82229L9.98709 5.82241C11.0615 5.16194 12.8212 4.5765 14.0537 4.46749L14.0669 4.46632V4.46691H14.067H14.0671H14.0672H14.0673H14.0674H14.0675H14.0676H14.0677H14.0678H14.0679H14.0681H14.0682H14.0683H14.0684H14.0685H14.0686H14.0687H14.0688H14.0689H14.069H14.0691H14.0693H14.0694H14.0695H14.0696H14.0697H14.0698H14.07H14.0701H14.0702H14.0703H14.0704H14.0706H14.0707H14.0708H14.0709H14.071H14.0712H14.0713H14.0714H14.0715H14.0717H14.0718H14.0719H14.0721H14.0722H14.0723H14.0724H14.0726H14.0727H14.0728H14.073H14.0731H14.0732H14.0734H14.0735H14.0736H14.0738H14.0739H14.0741H14.0742H14.0743H14.0745H14.0746H14.0748H14.0749H14.075H14.0752H14.0753H14.0755H14.0756H14.0758H14.0759H14.076H14.0762H14.0763H14.0765H14.0766H14.0768H14.0769H14.0771H14.0772H14.0774H14.0775H14.0777H14.0778H14.078H14.0781H14.0783H14.0785H14.0786H14.0788H14.0789H14.0791H14.0792H14.0794H14.0795H14.0797H14.0799H14.08H14.0802H14.0803H14.0805H14.0807H14.0808H14.081H14.0811H14.0813H14.0815H14.0816H14.0818H14.082H14.0821H14.0823H14.0825H14.0826H14.0828H14.083H14.0831H14.0833H14.0835H14.0836H14.0838H14.084H14.0841H14.0843H14.0845H14.0846H14.0848H14.085H14.0852H14.0853H14.0855H14.0857H14.0858H14.086H14.0862H14.0864H14.0865H14.0867H14.0869H14.0871H14.0872H14.0874H14.0876H14.0878H14.088H14.0881H14.0883H14.0885H14.0887H14.0888H14.089H14.0892H14.0894H14.0896H14.0897H14.0899H14.0901H14.0903H14.0905H14.0906H14.0908H14.091H14.0912H14.0914H14.0916H14.0917H14.0919H14.0921H14.0923H14.0925H14.0927H14.0929H14.093H14.0932H14.0934H14.0936H14.0938H14.094H14.0942H14.0943H14.0945H14.0947H14.0949H14.0951H14.0953H14.0955H14.0957H14.0958H14.096H14.0962H14.0964H14.0966H14.0968H14.097H14.0972H14.0974H14.0976H14.0977H14.0979H14.0981H14.0983H14.0985H14.0987H14.0989H14.0991H14.0993H14.0995H14.0997H14.0999H14.1H14.1002H14.1004H14.1006H14.1008H14.101H14.1012H14.1014H14.1016H14.1018H14.102H14.1022H14.1024H14.1026H14.1027H14.1029H14.1031H14.1033H14.1035H14.1037H14.1039H14.1041H14.1043H14.1045H14.1047H14.1049H14.1051H14.1053H14.1055H14.1057H14.1059H14.1061H14.1062H14.1064H14.1066H14.1068H14.107H14.1072H14.1074H14.1076H14.1078H14.108H14.1082H14.1084H14.1086H14.1088H14.109H14.1092H14.1094H14.1096H14.1098H14.11H14.1102H14.1103H14.1105H14.1107H14.1109H14.1111H14.1113H14.1115H14.1117H14.1119H14.1121H14.1123H14.1125H14.1127H14.1129H14.1131H14.1133H14.1135H14.1137H14.1139H14.114H14.1142H14.1144H14.1146H14.1148H14.115H14.1152H14.1154H14.1156H14.1158H14.116H14.1162H14.1164H14.1166H14.1168H14.1169H14.1171H14.1173H14.1175H14.1177H14.1179H14.1181H14.1183H14.1185H14.1187H14.1189H14.1191H14.1192H14.1194H14.1196H14.1198H14.12H14.1202H14.1204H14.1206H14.1208H14.121H14.1211H14.1213H14.1215H14.1217H14.1219H14.1221H14.1223H14.1225H14.1227H14.1228H14.123H14.1232H14.1234H14.1236H14.1238H14.124H14.1241H14.1243H14.1245H14.1247H14.1249H14.1251H14.1253H14.1254H14.1256H14.1258H14.126H14.1262H14.1264H14.1265H14.1267H14.1269H14.1271H14.1273H14.1274H14.1276H14.1278H14.128H14.1282H14.1283H14.1285H14.1287H14.1289H14.1291H14.1292H14.1294H14.1296H14.1298H14.1299H14.1301H14.1303H14.1305H14.1306H14.1308H14.131H14.1312H14.1313H14.1315H14.1317H14.1319H14.132H14.1322H14.1324H14.1325H14.1327H14.1329H14.1331H14.1332H14.1334H14.1336H14.1337H14.1339H14.1341H14.1342H14.1344H14.1346H14.1347H14.1349H14.1351H14.1352H14.1354H14.1356H14.1357H14.1359H14.136H14.1362H14.1364H14.1365H14.1367H14.1368H14.137H14.1372H14.1373H14.1375H14.1376H14.1378H14.138H14.1381H14.1383H14.1384H14.1386H14.1387H14.1389H14.139H14.1392H14.1393H14.1395H14.1396H14.1398H14.1399H14.1401H14.1402H14.1404H14.1405H14.1407H14.1408H14.141H14.1411H14.1413H14.1414H14.1416H14.1417H14.1419H14.142H14.1421H14.1423H14.1424H14.1426H14.1427H14.1428H14.143H14.1431H14.1432H14.1433H14.1434H14.1435H14.1437H14.1438H14.1439H14.1441H14.1442H14.1443H14.1445H14.1446H14.1447H14.1449H14.145H14.1451H14.1453H14.1454H14.1455H14.1456H14.1458H14.1459H14.146H14.1461H14.1463H14.1464H14.1465H14.1466H14.1467H14.1469H14.147H14.1471H14.1472H14.1473H14.1475H14.1476H14.1477H14.1478H14.1479H14.148H14.1481H14.1483H14.1484H14.1485H14.1486H14.1487H14.1488H14.1489H14.149H14.1491H14.1492H14.1493H14.1494H14.1495H14.1496H14.1497H14.1499H14.15H14.1501H14.1501H14.1502V4.61691C14.5836 4.57524 15.0502 4.7419 15.3919 5.05023C15.7419 5.3669 15.9336 5.80856 15.9336 6.29189V12.7002C15.9336 13.5336 15.2836 14.2669 14.4586 14.3752L5.6602 14.5651ZM5.6602 14.5651L5.66401 14.5656C6.71978 14.7047 8.41022 15.2652 9.36159 15.7818C9.55149 15.8862 9.77644 15.9419 10.0003 15.9419C10.2168 15.9419 10.4402 15.8975 10.6309 15.7604C11.5663 15.2456 13.2584 14.6877 14.3034 14.5489L14.3048 14.5487L14.4781 14.524C14.4784 14.5239 14.4787 14.5239 14.4789 14.5239L5.6602 14.5651ZM5.71534 13.0104L5.71535 13.0104L5.71135 13.0098C5.66046 13.0032 5.59784 12.969 5.54573 12.9091C5.49384 12.8494 5.46694 12.781 5.46694 12.7252V6.30858C5.46694 6.21719 5.49661 6.14447 5.55054 6.09511C5.5984 6.05283 5.66288 6.02523 5.74194 6.02523H5.74204H5.74214H5.74224H5.74233H5.74243H5.74253H5.74262H5.74272H5.74281H5.74291H5.74301H5.7431H5.7432H5.74329H5.74339H5.74348H5.74358H5.74367H5.74377H5.74386H5.74395H5.74405H5.74414H5.74423H5.74433H5.74442H5.74451H5.74461H5.7447H5.74479H5.74488H5.74497H5.74507H5.74516H5.74525H5.74534H5.74543H5.74552H5.74561H5.7457H5.7458H5.74589H5.74598H5.74607H5.74616H5.74625H5.74634H5.74642H5.74651H5.7466H5.74669H5.74678H5.74687H5.74696H5.74705H5.74713H5.74722H5.74731H5.7474H5.74749H5.74757H5.74766H5.74775H5.74783H5.74792H5.74801H5.7481H5.74818H5.74827H5.74835H5.74844H5.74853H5.74861H5.7487H5.74878H5.74887H5.74895H5.74904H5.74912H5.74921H5.74929H5.74938H5.74946H5.74955H5.74963H5.74971H5.7498H5.74988H5.74997H5.75005H5.75013H5.75022H5.7503H5.75038H5.75047H5.75055H5.75063H5.75071H5.7508H5.75088H5.75096H5.75104H5.75112H5.75121H5.75129H5.75137H5.75145H5.75153H5.75161H5.7517H5.75178H5.75186H5.75194H5.75202H5.7521H5.75218H5.75226H5.75234H5.75242H5.7525H5.75258H5.75266H5.75274H5.75282H5.7529H5.75298H5.75306H5.75314H5.75322H5.7533H5.75338H5.75346H5.75354H5.75361H5.75369H5.75377H5.75385H5.75393H5.75401H5.75408H5.75416H5.75424H5.75432H5.7544H5.75447H5.75455H5.75463H5.75471H5.75479H5.75486H5.75494H5.75502H5.75509H5.75517H5.75525H5.75533H5.7554H5.75548H5.75556H5.75563H5.75571H5.75579H5.75586H5.75594H5.75602H5.75609H5.75617H5.75624H5.75632H5.7564H5.75647H5.75655H5.75662H5.7567H5.75678H5.75685H5.75693H5.757H5.75708H5.75715H5.75723H5.7573H5.75738H5.75745H5.75753H5.7576H5.75768H5.75775H5.75783H5.7579H5.75798H5.75805H5.75813H5.7582H5.75828H5.75835H5.75843H5.7585H5.75858H5.75865H5.75872H5.7588H5.75887H5.75895H5.75902H5.7591H5.75917H5.75924H5.75932H5.75939H5.75947H5.75954H5.75961H5.75969H5.75976H5.75984H5.75991H5.75998H5.76006H5.76013H5.7602H5.76028H5.76035H5.76042H5.7605H5.76057H5.76065H5.76072H5.76079H5.76087H5.76094H5.76101H5.76109H5.76116H5.76123H5.76131H5.76138H5.76145H5.76153H5.7616H5.76167H5.76175H5.76182H5.76189H5.76197H5.76204H5.76211H5.76219H5.76226H5.76233H5.76241H5.76248H5.76255H5.76263H5.7627H5.76277H5.76284H5.76292H5.76299H5.76306H5.76314H5.76321H5.76328H5.76336H5.76343H5.7635H5.76358H5.76365H5.76372H5.7638H5.76387H5.76394H5.76402H5.76409H5.76416H5.76424H5.76431H5.76438H5.76446H5.76453H5.7646H5.76468H5.76475H5.76482H5.7649H5.76497H5.76504H5.76512H5.76519H5.76527H5.76534H5.76541H5.76549H5.76556H5.76563H5.76571H5.76578H5.76586H5.76593H5.766H5.76608H5.76615H5.76623H5.7663H5.76637H5.76645H5.76652H5.7666H5.76667H5.76674H5.76682H5.76689H5.76697H5.76704H5.76712H5.76719H5.76727H5.76734H5.76742H5.76749H5.76756H5.76764H5.76771H5.76779H5.76786H5.76794H5.76801H5.76809H5.76816H5.76824H5.76831H5.76839H5.76847H5.76854H5.76862H5.76869H5.76877H5.76884H5.76892H5.769H5.76907H5.76915H5.76922H5.7693H5.76938H5.76945H5.76953H5.7696H5.76968H5.76976H5.76983H5.76991H5.76999H5.77006H5.77014H5.77022H5.77029H5.77037H5.77045H5.77053H5.7706H5.77068H5.77076H5.77084H5.77091H5.77099H5.77107H5.77115H5.77122H5.7713H5.77138H5.77146H5.77154H5.77161H5.77169H5.77177H5.77185H5.77193H5.77201H5.77209H5.77217H5.77225H5.77232H5.7724H5.77248H5.77256H5.77264H5.77272H5.7728H5.77288H5.77296H5.77304H5.77312H5.7732H5.77328H5.77336H5.77344H5.77352H5.7736H5.77369H5.77377H5.77385H5.77393H5.77401H5.77409H5.77417H5.77425H5.77434H5.77442H5.7745H5.77458H5.77466H5.77475H5.77483H5.77491H5.77499H5.77508H5.77516H5.77524H5.77533H5.77541H5.77549H5.77558H5.77566H5.77574H5.77583H5.77591H5.776H5.77608H5.77617H5.77625H5.77633H5.77642H5.7765H5.77659H5.77667H5.77676H5.77685H5.77693H5.77702H5.7771H5.77719H5.77728H5.77735C6.2647 6.0663 6.89964 6.21437 7.5238 6.42175C8.15056 6.62999 8.75502 6.89422 9.17876 7.16057L9.17874 7.16059L9.18142 7.1622L9.30557 7.23667C9.70485 7.4833 10.2815 7.4817 10.6947 7.22848L10.7774 7.17887L10.7775 7.17891L10.7807 7.17688C11.2003 6.91059 11.8027 6.64431 12.4234 6.43396C13.0415 6.22452 13.6656 6.07462 14.1318 6.03357H14.1319H14.132H14.1321H14.1323H14.1324H14.1325H14.1327H14.1328H14.133H14.1331H14.1332H14.1334H14.1335H14.1337H14.1338H14.134H14.1341H14.1342H14.1344H14.1345H14.1347H14.1348H14.135H14.1351H14.1353H14.1354H14.1356H14.1357H14.1359H14.136H14.1362H14.1363H14.1365H14.1366H14.1368H14.1369H14.1371H14.1373H14.1374H14.1376H14.1377H14.1379H14.138H14.1382H14.1384H14.1385H14.1387H14.1388H14.139H14.1392H14.1393H14.1395H14.1396H14.1398H14.14H14.1401H14.1403H14.1405H14.1406H14.1408H14.141H14.1411H14.1413H14.1415H14.1416H14.1418H14.142H14.1421H14.1423H14.1425H14.1426H14.1428H14.143H14.1432H14.1433H14.1435H14.1437H14.1438H14.144H14.1442H14.1444H14.1445H14.1447H14.1449H14.1451H14.1452H14.1454H14.1456H14.1458H14.1459H14.1461H14.1463H14.1465H14.1466H14.1468H14.147H14.1472H14.1474H14.1475H14.1477H14.1479H14.1481H14.1483H14.1484H14.1486H14.1488H14.149H14.1492H14.1494H14.1495H14.1497H14.1499H14.1501H14.1503H14.1505H14.1506H14.1508H14.151H14.1512H14.1514H14.1516H14.1518H14.1519H14.1521H14.1523H14.1525H14.1527H14.1529H14.1531H14.1532H14.1534H14.1536H14.1538H14.154H14.1542H14.1544H14.1546H14.1548H14.1549H14.1551H14.1553H14.1555H14.1557H14.1559H14.1561H14.1563H14.1565H14.1567H14.1568H14.157H14.1572H14.1574H14.1576H14.1578H14.158H14.1582H14.1584H14.1586H14.1588H14.159H14.1592H14.1593H14.1595H14.1597H14.1599H14.1601H14.1603H14.1605H14.1607H14.1609H14.1611H14.1613H14.1615H14.1617H14.1619H14.1621H14.1623H14.1624H14.1626H14.1628H14.163H14.1632H14.1634H14.1636H14.1638H14.164H14.1642H14.1644H14.1646H14.1648H14.165H14.1652H14.1654H14.1656H14.1658H14.166H14.1662H14.1663H14.1665H14.1667H14.1669H14.1671H14.1673H14.1675H14.1677H14.1679H14.1681H14.1683H14.1685H14.1687H14.1689H14.1691H14.1693H14.1695H14.1697H14.1699H14.1701H14.1702H14.1704H14.1706H14.1708H14.171H14.1712H14.1714H14.1716H14.1718H14.172H14.1722H14.1724H14.1726H14.1728H14.173H14.1732H14.1734H14.1735H14.1737H14.1739H14.1741H14.1743H14.1745H14.1747H14.1749H14.1751H14.1753H14.1755H14.1757H14.1759H14.1761H14.1762H14.1764H14.1766H14.1768H14.177H14.1772H14.1774H14.1776H14.1778H14.178H14.1782H14.1783H14.1785H14.1787H14.1789H14.1791H14.1793H14.1795H14.1797H14.1799H14.1801H14.1802H14.1804H14.1806H14.1808H14.181H14.1812H14.1814H14.1816H14.1817H14.1819H14.1821H14.1823H14.1825H14.1827H14.1829H14.183H14.1832H14.1834H14.1836H14.1838H14.184H14.1841H14.1843H14.1845H14.1847H14.1849H14.1851H14.1852H14.1854H14.1856H14.1858H14.186H14.1861H14.1863H14.1865H14.1867H14.1869H14.187H14.1872H14.1874H14.1876H14.1877H14.1879H14.1881H14.1883H14.1885H14.1886H14.1888H14.189H14.1892H14.1893H14.1895H14.1897H14.1898H14.19H14.1902H14.1904H14.1905H14.1907H14.1909H14.1911H14.1912H14.1914H14.1916H14.1917H14.1919H14.1921H14.1922H14.1924H14.1926H14.1927H14.1929H14.1931H14.1932H14.1934H14.1936H14.1937H14.1939H14.1941H14.1942H14.1944H14.1945H14.1947H14.1949H14.195H14.1952H14.1953H14.1955H14.1957H14.1958H14.196H14.1961H14.1963H14.1965H14.1966H14.1968H14.1969H14.1971H14.1972H14.1974H14.1975H14.1977H14.1978H14.198H14.1981H14.1983H14.1984H14.1986H14.1987H14.1989H14.199H14.1992H14.1993H14.1995H14.1996H14.1998H14.1999H14.2001H14.2002H14.2003H14.2005H14.2006H14.2008H14.2009H14.201H14.2012H14.2013H14.2015H14.2016H14.2017H14.2019H14.202H14.2021H14.2023H14.2024H14.2025H14.2027H14.2028H14.2029H14.2031H14.2032H14.2033H14.2035H14.2036H14.2037H14.2038H14.204H14.2041H14.2042H14.2044H14.2045H14.2046H14.2047H14.2048H14.205H14.2051H14.2052H14.2053H14.2054H14.2056H14.2057H14.2058H14.2059H14.206H14.2061H14.2063H14.2064H14.2065H14.2066H14.2067H14.2068H14.2069H14.207H14.2071H14.2073H14.2074H14.2075H14.2076H14.2077H14.2078H14.2079H14.208H14.2081H14.2082H14.2083H14.2084H14.2085H14.2086V6.03386L14.2179 6.03328C14.3178 6.02703 14.3912 6.05136 14.4468 6.10056C14.5016 6.15649 14.5336 6.22635 14.5336 6.31689V12.7252C14.5336 12.781 14.5067 12.8494 14.4548 12.9091C14.4027 12.969 14.3401 13.0032 14.2892 13.0098L14.2883 13.01L14.106 13.0348C14.1059 13.0348 14.1057 13.0349 14.1055 13.0349C12.8909 13.192 11.056 13.7975 10.015 14.3788C8.90689 13.7914 7.07937 13.2008 5.87217 13.0352L5.71534 13.0104Z" stroke="#ffffff" stroke-opacity="0.8" stroke-width="0.3"/>
<path d="M10 15.3417C9.65833 15.3417 9.375 15.0583 9.375 14.7167V6.75C9.375 6.40833 9.65833 6.125 10 6.125C10.3417 6.125 10.625 6.40833 10.625 6.75V14.7167C10.625 15.0667 10.3417 15.3417 10 15.3417Z" fill="#ffffff" fill-opacity="0.8"/>
<path d="M9.275 14.7167C9.275 15.1136 9.6031 15.4417 10 15.4417C10.396 15.4417 10.725 15.1228 10.725 14.7167V6.75C10.725 6.3531 10.3969 6.025 10 6.025C9.6031 6.025 9.275 6.3531 9.275 6.75V14.7167Z" stroke="#ffffff" stroke-opacity="0.8" stroke-width="0.2"/>
</svg>
