<svg width="16" height="16" viewBox="0 0 16 16" fill="none" xmlns="http://www.w3.org/2000/svg">
<path d="M8.13619 7.86425L8.31297 7.68747L8.13619 7.86425C8.28555 8.01361 8.47691 8.08414 8.6663 8.08414C8.8557 8.08414 9.04706 8.01361 9.19641 7.86425L14.6631 2.39758C14.954 2.10662 14.954 1.62833 14.6631 1.33736C14.3721 1.0464 13.8938 1.0464 13.6029 1.33736L8.13619 6.80403C7.84523 7.095 7.84523 7.57329 8.13619 7.86425Z" fill="white" stroke="white" stroke-width="0.5"/>
<path d="M13.9168 4.53398C13.9168 4.94539 14.2554 5.28398 14.6668 5.28398C15.0782 5.28398 15.4168 4.94539 15.4168 4.53398V1.33398C15.4168 0.92258 15.0782 0.583984 14.6668 0.583984H11.4668C11.0554 0.583984 10.7168 0.92258 10.7168 1.33398C10.7168 1.74539 11.0554 2.08398 11.4668 2.08398H13.9168V4.53398Z" fill="white" stroke="white" stroke-width="0.5"/>
<path d="M6.00065 15.4173H10.0007C11.8393 15.4173 13.211 15.0255 14.1183 14.1183C15.0255 13.211 15.4173 11.8393 15.4173 10.0007V8.66732C15.4173 8.25591 15.0787 7.91732 14.6673 7.91732C14.2559 7.91732 13.9173 8.25591 13.9173 8.66732V10.0007C13.9173 11.5197 13.6445 12.4749 13.0597 13.0597C12.4749 13.6445 11.5197 13.9173 10.0007 13.9173H6.00065C4.48162 13.9173 3.52641 13.6445 2.94159 13.0597C2.35678 12.4749 2.08398 11.5197 2.08398 10.0007V6.00065C2.08398 4.48162 2.35678 3.52641 2.94159 2.94159C3.52641 2.35678 4.48162 2.08398 6.00065 2.08398H7.33398C7.74539 2.08398 8.08398 1.74539 8.08398 1.33398C8.08398 0.92258 7.74539 0.583984 7.33398 0.583984H6.00065C4.16195 0.583984 2.79027 0.97581 1.88304 1.88304C0.97581 2.79027 0.583984 4.16195 0.583984 6.00065V10.0007C0.583984 11.8393 0.97581 13.211 1.88304 14.1183C2.79027 15.0255 4.16195 15.4173 6.00065 15.4173Z" fill="white" stroke="white" stroke-width="0.5"/>
</svg>
