<svg width="41" height="40" viewBox="0 0 41 40" fill="none" xmlns="http://www.w3.org/2000/svg">
<path d="M20.75 0C15.4457 0 10.3586 2.10714 6.60787 5.85786C2.85714 9.60859 0.750004 14.6957 0.750004 20C0.750004 25.3043 2.85714 30.3914 6.60787 34.1421C10.3586 37.8929 15.4457 40 20.75 40C26.0543 40 31.1414 37.8929 34.8921 34.1421C38.6429 30.3914 40.75 25.3043 40.75 20C40.75 14.6957 38.6429 9.60859 34.8921 5.85786C31.1414 2.10714 26.0543 0 20.75 0ZM29.1954 23H19.25C18.8083 23 18.3846 22.8245 18.0722 22.5122C17.7599 22.1998 17.75 21.5161 17.75 21.0743V9C17.7499 8.57759 17.7384 8.36187 18.0817 8.01846C18.2364 7.86377 18.42 7.74105 18.6221 7.65733C18.8242 7.57361 19.0408 7.53052 19.2596 7.53052C19.4783 7.53052 19.695 7.57361 19.8971 7.65733C20.0991 7.74105 20.2828 7.86377 20.4374 8.01846C20.7957 8.37678 20.7501 8.57225 20.75 9V20H29.205C29.4294 19.9912 29.6532 20.0279 29.8631 20.1077C30.0729 20.1875 30.3026 20.3355 30.4644 20.4911C30.6263 20.6468 30.7138 20.8492 30.8018 21.0558C30.8897 21.2624 30.9265 21.3886 30.9265 21.6132C30.9265 21.8951 30.7012 22.3115 30.4131 22.5886C30.2513 22.7442 30.0634 22.815 29.8535 22.8948C29.6436 22.9747 29.4198 23.0113 29.1954 23.0025V23Z" fill="#333333" fill-opacity="0.2"/>
</svg>
