<svg width="20" height="16" viewBox="0 0 20 16" fill="none" xmlns="http://www.w3.org/2000/svg">
<path d="M16.9569 1.68491C16.9513 1.67416 16.9421 1.66575 16.9309 1.66116C15.6342 1.0678 14.2658 0.644682 12.8599 0.402405C12.8472 0.400037 12.834 0.401745 12.8222 0.407287C12.8105 0.41283 12.8008 0.421923 12.7945 0.433275C12.6082 0.77057 12.439 1.11703 12.2877 1.47133C10.7723 1.2419 9.23083 1.2419 7.7154 1.47133C7.56307 1.11613 7.39121 0.769584 7.2006 0.433275C7.19406 0.42217 7.18432 0.413286 7.17265 0.40778C7.16098 0.402273 7.14791 0.400401 7.13516 0.402405C5.72916 0.644174 4.36067 1.06732 3.06412 1.6612C3.05302 1.66589 3.04366 1.6739 3.03732 1.68413C0.444487 5.54588 -0.265788 9.31269 0.0826486 13.0328C0.0836288 13.042 0.0864375 13.0508 0.0909076 13.0588C0.0953777 13.0668 0.101418 13.0739 0.108669 13.0795C1.61845 14.1944 3.30716 15.0454 5.10273 15.5962C5.11538 15.6 5.12888 15.5998 5.14143 15.5957C5.15397 15.5916 5.16496 15.5838 5.1729 15.5733C5.55855 15.05 5.90027 14.4958 6.19457 13.9164C6.19862 13.9085 6.20093 13.8997 6.20135 13.8908C6.20177 13.8819 6.2003 13.873 6.19702 13.8647C6.19375 13.8565 6.18875 13.8489 6.18235 13.8427C6.17595 13.8365 6.16831 13.8317 6.15991 13.8286C5.62106 13.623 5.09938 13.3751 4.59977 13.0873C4.5907 13.082 4.58308 13.0745 4.57758 13.0655C4.57208 13.0566 4.56888 13.0464 4.56826 13.0359C4.56764 13.0255 4.56962 13.015 4.57401 13.0055C4.57841 12.9959 4.5851 12.9876 4.59348 12.9813C4.69861 12.9029 4.80191 12.8222 4.90331 12.7391C4.91221 12.7318 4.92297 12.7272 4.93438 12.7256C4.9458 12.7241 4.95742 12.7258 4.96794 12.7305C8.24104 14.2203 11.7846 14.2203 15.019 12.7305C15.0295 12.7255 15.0413 12.7235 15.0529 12.7249C15.0644 12.7263 15.0754 12.731 15.0844 12.7384C15.1859 12.8219 15.2895 12.9029 15.395 12.9813C15.4035 12.9875 15.4102 12.9958 15.4147 13.0053C15.4192 13.0148 15.4212 13.0253 15.4207 13.0357C15.4201 13.0462 15.417 13.0564 15.4116 13.0654C15.4061 13.0744 15.3986 13.0819 15.3895 13.0873C14.8911 13.3775 14.3689 13.6253 13.8286 13.8278C13.8203 13.831 13.8126 13.8359 13.8063 13.8423C13.7999 13.8486 13.795 13.8562 13.7918 13.8645C13.7886 13.8729 13.7872 13.8818 13.7877 13.8908C13.7881 13.8997 13.7905 13.9085 13.7946 13.9164C14.0939 14.4926 14.4351 15.046 14.8155 15.5724C14.8232 15.5832 14.8342 15.5913 14.8468 15.5955C14.8594 15.5998 14.873 15.6 14.8857 15.5961C16.6845 15.0472 18.3761 14.1961 19.8878 13.0795C19.8952 13.0741 19.9013 13.0673 19.9058 13.0594C19.9103 13.0515 19.913 13.0427 19.9138 13.0336C20.331 8.73274 19.2155 4.9968 16.9569 1.68491ZM6.68339 10.7677C5.69794 10.7677 4.88597 9.86574 4.88597 8.75808C4.88597 7.65041 5.68219 6.74843 6.68339 6.74843C7.6924 6.74843 8.49652 7.65825 8.48077 8.75801C8.48077 9.86574 7.68451 10.7677 6.68339 10.7677ZM13.329 10.7677C12.3436 10.7677 11.5316 9.86574 11.5316 8.75808C11.5316 7.65041 12.3278 6.74843 13.329 6.74843C14.3381 6.74843 15.1422 7.65825 15.1264 8.75801C15.1264 9.86574 14.3381 10.7677 13.329 10.7677Z" fill="#333333" fill-opacity="0.8"/>
</svg>
