<svg width="17" height="16" viewBox="0 0 17 16" fill="none" xmlns="http://www.w3.org/2000/svg">
<path fill-rule="evenodd" clip-rule="evenodd" d="M2.84073 2.34074C5.96117 -0.780247 11.0388 -0.780247 14.1592 2.34074C17.2802 5.46115 17.2802 10.5388 14.1592 13.6593C11.0389 16.7802 5.96117 16.7802 2.84073 13.6593C-0.280242 10.5388 -0.280242 5.46115 2.84073 2.34074ZM3.65303 12.847C6.32505 15.5196 10.6744 15.5202 13.347 12.847C16.0196 10.1749 16.0196 5.82506 13.347 3.15272C10.6744 0.47981 6.32507 0.480374 3.65303 3.15272C0.979835 5.82563 0.979835 10.1743 3.65303 12.847ZM8.56609 8.18544H12.5904C12.8867 8.18718 13.127 8.42747 13.127 8.72202C13.127 9.01831 12.8862 9.25863 12.5905 9.25863L8.41623 9.25801C8.12111 9.25801 7.89247 9.17053 7.72974 8.99847C7.48338 8.73584 7.49242 8.37052 7.49345 8.32881C7.49349 8.32718 7.49352 8.32604 7.49352 8.32542V3.73332C7.49352 3.43792 7.73384 3.19702 8.02952 3.19702C8.32519 3.19702 8.56665 3.43792 8.56665 3.73332L8.56609 8.18544Z" fill="#333333" fill-opacity="0.8"/>
</svg>
