<svg width="41" height="40" viewBox="0 0 41 40" fill="none" xmlns="http://www.w3.org/2000/svg">
<path d="M34.8952 5.85392C33.0389 3.99504 30.8337 2.52104 28.4062 1.51649C25.9788 0.511938 23.3769 -0.0033805 20.7498 0.000103235C18.1225 -0.00530484 15.52 0.509136 13.0923 1.5138C10.6647 2.51846 8.45972 3.99348 6.60453 5.85392C-1.20086 13.6539 -1.20086 26.3454 6.60453 34.1453C8.45979 36.0057 10.6647 37.4806 13.0924 38.4853C15.5201 39.4899 18.1225 40.0044 20.7498 39.9992C23.3775 40.0068 25.9807 39.4934 28.4087 38.4886C30.8367 37.4838 33.0414 36.0076 34.8952 34.1453C42.7014 26.3454 42.7014 13.6539 34.8952 5.85392ZM32.5836 14.7739L19.1483 29.0677C19.0854 29.1384 19.0066 29.1933 18.9183 29.2277C18.8499 29.2738 18.8045 29.32 18.7122 29.3415C18.5463 29.4145 18.3673 29.4532 18.186 29.4554C18.0146 29.4498 17.8449 29.4195 17.6822 29.3654L17.5222 29.273C17.4263 29.228 17.3347 29.1745 17.2484 29.113L9.55687 21.5431C9.4241 21.4164 9.31894 21.2635 9.24799 21.0942C9.17703 20.9249 9.14181 20.7428 9.14452 20.5593C9.14452 20.1931 9.28452 19.827 9.53452 19.5754C9.79937 19.322 10.1518 19.1805 10.5184 19.1805C10.8849 19.1805 11.2374 19.322 11.5022 19.5754L18.1422 26.1154L30.5699 12.8993C30.8288 12.6419 31.1755 12.492 31.5404 12.4794C31.9053 12.4669 32.2614 12.5927 32.5375 12.8316C32.6755 12.9555 32.7857 13.1072 32.8609 13.2768C32.9361 13.4464 32.9745 13.63 32.9737 13.8154C32.9724 14.1738 32.8327 14.5178 32.5837 14.7754V14.7739H32.5836Z" fill="#609934"/>
</svg>
