<svg width="41" height="40" viewBox="0 0 41 40" fill="none" xmlns="http://www.w3.org/2000/svg">
<path d="M20.5 0C9.45432 0 0.5 8.95432 0.5 20C0.5 31.0458 9.45432 40 20.5 40C31.5458 40 40.5 31.0458 40.5 20C40.5 8.95428 31.5458 0 20.5 0ZM28.4423 25.9595C28.9895 26.5072 28.9895 27.395 28.4423 27.9419C27.8942 28.4896 27.0067 28.4896 26.4587 27.9419L20.5098 21.993L14.5605 27.9419C14.0128 28.4896 13.1253 28.4896 12.5772 27.9419C12.0299 27.395 12.0299 26.5072 12.5772 25.9595L18.5269 20.009L12.5772 14.0601C12.0299 13.5132 12.0299 12.6246 12.5772 12.0769C13.1253 11.53 14.0127 11.53 14.5605 12.0769L20.5098 18.0266L26.4587 12.0769C27.0067 11.53 27.8942 11.53 28.4422 12.0769C28.9895 12.6246 28.9895 13.5133 28.4422 14.0601L22.4926 20.009L28.4422 25.9595H28.4423Z" fill="#EF2F2D"/>
</svg>
